<mxfile host="65bd71144e" modified="2020-12-23T06:58:21.005Z" agent="5.0 (Macintosh; Intel Mac OS X 10_15_7) AppleWebKit/537.36 (KHTML, like Gecko) Code/1.52.1 Chrome/83.0.4103.122 Electron/9.3.5 Safari/537.36" etag="GJSKo0nJoTOAe3-AvoFn" version="13.10.0" type="embed">
    <diagram id="wkZx2AX7cwE2MqMOvKCD" name="第 1 页">
        <mxGraphModel dx="1062" dy="692" grid="1" gridSize="10" guides="1" tooltips="1" connect="1" arrows="1" fold="1" page="1" pageScale="1" pageWidth="827" pageHeight="1169" background="#DAD2D8" math="0" shadow="0">
            <root>
                <mxCell id="0"/>
                <mxCell id="1" parent="0"/>
                <mxCell id="2" value="" style="strokeColor=#0F8B8D;html=1;labelPosition=right;align=left;spacingLeft=15;shadow=0;dashed=0;outlineConnect=0;shape=mxgraph.rack.dell.poweredge_r740;rounded=0;sketch=0;fillColor=#FAE5C7;fontColor=#143642;" parent="1" vertex="1">
                    <mxGeometry x="410" y="182.5" width="162" height="30" as="geometry"/>
                </mxCell>
                <mxCell id="3" value="" style="fontColor=#143642;verticalAlign=top;verticalLabelPosition=bottom;labelPosition=center;align=center;html=1;outlineConnect=0;fillColor=#FAE5C7;strokeColor=#0F8B8D;gradientDirection=north;strokeWidth=2;shape=mxgraph.networks.terminal;rounded=0;sketch=0;" parent="1" vertex="1">
                    <mxGeometry x="160" y="160" width="80" height="65" as="geometry"/>
                </mxCell>
                <mxCell id="8" value="" style="fontColor=#143642;verticalAlign=top;verticalLabelPosition=bottom;labelPosition=center;align=center;html=1;outlineConnect=0;fillColor=#FAE5C7;strokeColor=#0F8B8D;gradientDirection=north;strokeWidth=2;shape=mxgraph.networks.switch;rounded=0;sketch=0;" parent="1" vertex="1">
                    <mxGeometry x="280" y="290" width="100" height="30" as="geometry"/>
                </mxCell>
                <mxCell id="10" value="" style="endArrow=none;html=1;strokeColor=#A8201A;fillColor=#FAE5C7;fontColor=#143642;exitX=0;exitY=0.5;exitDx=0;exitDy=0;exitPerimeter=0;labelBackgroundColor=#DAD2D8;" parent="1" source="8" edge="1">
                    <mxGeometry width="50" height="50" relative="1" as="geometry">
                        <mxPoint x="220" y="290" as="sourcePoint"/>
                        <mxPoint x="220" y="230" as="targetPoint"/>
                    </mxGeometry>
                </mxCell>
                <mxCell id="11" value="" style="endArrow=none;html=1;strokeColor=#A8201A;fillColor=#FAE5C7;fontColor=#143642;exitX=1;exitY=0.5;exitDx=0;exitDy=0;exitPerimeter=0;labelBackgroundColor=#DAD2D8;" parent="1" source="8" target="2" edge="1">
                    <mxGeometry width="50" height="50" relative="1" as="geometry">
                        <mxPoint x="460" y="310" as="sourcePoint"/>
                        <mxPoint x="460" y="210" as="targetPoint"/>
                    </mxGeometry>
                </mxCell>
                <mxCell id="12" value="TCP/IP" style="rounded=0;whiteSpace=wrap;html=1;sketch=0;strokeColor=#0F8B8D;fillColor=#FAE5C7;fontColor=#143642;" parent="1" vertex="1">
                    <mxGeometry x="250" y="227" width="50" height="20" as="geometry"/>
                </mxCell>
                <mxCell id="13" value="iSCSI" style="rounded=0;whiteSpace=wrap;html=1;sketch=0;strokeColor=#0F8B8D;fillColor=#FAE5C7;fontColor=#143642;" parent="1" vertex="1">
                    <mxGeometry x="250" y="199" width="50" height="20" as="geometry"/>
                </mxCell>
                <mxCell id="22" value="块设备" style="rounded=0;whiteSpace=wrap;html=1;sketch=0;strokeColor=#0F8B8D;fillColor=#FAE5C7;fontColor=#143642;" parent="1" vertex="1">
                    <mxGeometry x="250" y="169.5" width="50" height="20" as="geometry"/>
                </mxCell>
                <mxCell id="25" value="TCP/IP" style="rounded=0;whiteSpace=wrap;html=1;sketch=0;strokeColor=#0F8B8D;fillColor=#FAE5C7;fontColor=#143642;" vertex="1" parent="1">
                    <mxGeometry x="340" y="225.5" width="50" height="20" as="geometry"/>
                </mxCell>
                <mxCell id="26" value="iSCSI" style="rounded=0;whiteSpace=wrap;html=1;sketch=0;strokeColor=#0F8B8D;fillColor=#FAE5C7;fontColor=#143642;" vertex="1" parent="1">
                    <mxGeometry x="340" y="200.5" width="50" height="20" as="geometry"/>
                </mxCell>
                <mxCell id="27" value="LUN" style="rounded=0;whiteSpace=wrap;html=1;sketch=0;strokeColor=#0F8B8D;fillColor=#FAE5C7;fontColor=#143642;" vertex="1" parent="1">
                    <mxGeometry x="340" y="172.5" width="50" height="20" as="geometry"/>
                </mxCell>
                <mxCell id="28" value="iscsid" style="rounded=1;whiteSpace=wrap;html=1;sketch=0;strokeColor=#0F8B8D;fillColor=#FAE5C7;fontColor=#143642;strokeWidth=2;" vertex="1" parent="1">
                    <mxGeometry x="250" y="252" width="50" height="20" as="geometry"/>
                </mxCell>
                <mxCell id="31" value="tgtd" style="rounded=1;whiteSpace=wrap;html=1;sketch=0;strokeColor=#0F8B8D;fillColor=#FAE5C7;fontColor=#143642;strokeWidth=2;" vertex="1" parent="1">
                    <mxGeometry x="340" y="252" width="50" height="20" as="geometry"/>
                </mxCell>
                <mxCell id="32" value="主机" style="text;html=1;strokeColor=none;fillColor=none;align=center;verticalAlign=middle;whiteSpace=wrap;rounded=0;fontColor=#143642;" vertex="1" parent="1">
                    <mxGeometry x="180" y="173" width="40" height="20" as="geometry"/>
                </mxCell>
                <mxCell id="33" value="存储" style="text;html=1;strokeColor=none;fillColor=none;align=center;verticalAlign=middle;whiteSpace=wrap;rounded=0;sketch=0;fontColor=#143642;" vertex="1" parent="1">
                    <mxGeometry x="471" y="160" width="40" height="20" as="geometry"/>
                </mxCell>
            </root>
        </mxGraphModel>
    </diagram>
</mxfile>